<?xml version="1.0" encoding="utf-8"?>
<!-- Generator: Adobe Illustrator 25.2.3, SVG Export Plug-In . SVG Version: 6.00 Build 0)  -->
<svg version="1.1" id="Layer_1" xmlns="http://www.w3.org/2000/svg" xmlns:xlink="http://www.w3.org/1999/xlink" x="0px" y="0px"
	 viewBox="0 0 570 359" style="enable-background:new 0 0 570 359;" xml:space="preserve">
<style type="text/css">
	.st0{fill:#F5C5B3;}
	.st1{fill:#699DEE;}
	.st2{fill:#FEC4AD;}
	.st3{fill:#E8D4E5;}
	.st4{fill:#7B2B1A;}
	.st5{fill:#133A50;}
	.st6{fill:#FFFFFF;}
	.st7{fill:#689DEE;}
	.st8{fill:none;stroke:#FFFFFF;stroke-width:2;stroke-miterlimit:10;}
	.st9{fill:#21295B;}
	.st10{fill:#C65447;}
	.st11{fill:#CFCFCF;}
	.st12{fill:#B3B3B3;}
	.st13{clip-path:url(#SVGID_2_);}
	.st14{fill:#F1A34F;}
	.st15{opacity:0.7;fill:#F1A34F;enable-background:new    ;}
	.st16{fill:#42B2FC;}
	.st17{fill:url(#Path_210_1_);}
	.st18{fill:url(#Path_211_1_);}
	.st19{fill:#471A16;}
</style>
<g id="Asset_1" transform="translate(-0.002 -0.002)">
	<g id="Layer_2_1_" transform="translate(0.002 0.002)">
		<g id="OBJECTS">
			<path id="Path_160" class="st0" d="M25.59,74.26c-0.1,0.39,6.24-3.54,6.24-3.54l2.68-4.19c0,0,2.62-1.69,4.51-2.61
				c1.88-0.92,5.33-6.53,5.33-6.53l-1.4-1.7c-0.79,1-1.67,1.94-2.62,2.79c-0.64,0.2-1.32,0.2-1.95,0c0.41-1.43,0.91-2.83,1.51-4.19
				c1.17-2.31,2.58-4.5,4.19-6.53l-1.21-1.26c-0.92,0.88-1.79,1.81-2.61,2.79c-0.7,0.92-2.02,2.79-2.02,2.79
				c0.64-1.6,1.38-3.15,2.23-4.65c0.86-1.27,1.79-2.99,1.79-2.99l-1.4-0.96c-0.89,1.11-1.72,2.28-2.46,3.5
				C37.55,48.49,36,50.99,36,50.99c0.5-1.67,1.08-3.32,1.76-4.93c0.3-0.54,0.57-1.1,0.8-1.67l-1.65-0.56
				c-0.82,1.05-1.47,2.23-1.94,3.47c-0.34,0.99-0.76,1.96-1.26,2.89c0.19-1.43,0.53-2.83,1.03-4.19c0.28-0.42,0.47-0.9,0.56-1.4
				l-1.4-0.25c0,0-2.41,4.83-3.75,7.76s-2.41,6.89-3.17,9.04c-0.77,3.11-1.35,6.27-1.75,9.45L25.59,74.26z"/>
			<path id="Path_161" class="st1" d="M65.15,102.36l-32.52-5.58c-0.55-5.56-0.66-11.16-0.35-16.75c0.57-9.77,1.77-12.45,1.77-12.45
				l-8.74-1.2c0,0-1.72,7.72-2.96,13.23c-2.74,12.21-5.23,23.64-3.14,26.19c3.03,3.7,30.09,11.16,39.34,18.14
				C64.14,128.15,63.81,114.78,65.15,102.36z"/>
			<path id="Path_162" class="st2" d="M111.25,194.77l-1.65,11.25l3.39,7.7l2.48-3.35l0.57-6.28l3.67,0.54l1.8-2.26l-0.15-4.7
				l-0.6-12.81L111.25,194.77z"/>
			<path id="Path_163" class="st1" d="M108.96,109.07c-2.5-0.92-10.68-0.32-10.68-0.32s-0.77,8.72,2.5,15.46
				c3.27,6.74,11.54,31.3,12.56,33.6c1.02,2.3-2.18,36.95-2.18,36.95l11.93-2.44c0,0,5.76-26.73,5.72-33.49
				c-0.04-6.77-6.41-32.22-10.93-40.32S115.05,111.32,108.96,109.07z"/>
			<path id="Path_164" class="st2" d="M89.3,84.08c0,0-2.64,11.51-0.57,14.19c1.2,1.58,6.31,7.17,6.31,7.17s-16.92,8.93-21.9,8.93
				s-3.22-9.98-3.22-9.98s5.42-4.28,6.22-6.45c0.67-2.77,1.09-5.6,1.26-8.44L89.3,84.08z"/>
			<path id="Path_165" class="st0" d="M91.27,84.5c0,0-0.18-4.19,3.32-4.09c2.25,0,2.43,2.13,0.67,4.79
				c-0.73,1.12-0.81,3.64-1.72,4.45c-1.12,0.99-2.04-0.53-2.39-1.23C90.88,87.12,90.92,85.78,91.27,84.5z"/>
			<path id="Path_166" class="st0" d="M72.33,84.5c0,0,0.2-4.19-3.32-4.09c-2.25,0-2.41,2.13-0.67,4.79
				c0.74,1.12,0.81,3.64,1.73,4.45c0.92,0.81,2.04-0.53,2.37-1.23C72.71,87.12,72.67,85.78,72.33,84.5L72.33,84.5z"/>
			<path id="Path_167" class="st0" d="M94.84,74.23c-0.16,1.44-0.4,2.86-0.71,4.27c-0.08,0.49-0.18,1.05-0.26,1.69
				c-0.73,5.04-1.65,11.89-2.05,12.91c-0.66,1.7-4.19,4.44-5.96,5.44c-2.5,0.94-5.27,0.87-7.72-0.2c-1.7-1-5.58-3.54-6.22-5.25
				c-0.4-1.03-1.4-8.08-2.09-13.2c-0.08-0.59-0.17-1.09-0.25-1.54c-0.3-1.38-0.53-2.78-0.68-4.19c-0.26-4.19,4.52-10.44,12.98-10.44
				C91.85,63.79,95.1,69.98,94.84,74.23z"/>
			<path id="Path_168" class="st3" d="M73.11,68.87c5.03-1.87,10.6-1.66,15.48,0.57l2.99-1.9c-3.32-1.53-6.94-2.29-10.59-2.23
				C74.73,65.35,73.11,68.87,73.11,68.87z"/>
			<path id="Path_169" class="st4" d="M94.13,78.5c-0.08,0.49-0.18,1.05-0.26,1.69c-0.73,5.04-1.65,11.89-2.05,12.91
				c-0.66,1.7-4.19,4.44-5.96,5.44c-2.5,0.94-5.27,0.87-7.72-0.2c-1.7-1-5.58-3.54-6.22-5.25c-0.4-1.03-1.4-8.08-2.09-13.2
				c-0.08-0.59-0.17-1.09-0.25-1.53l0.7-1.03c0,0,1.24,7.3,3.15,9.57c1.91,2.27,2.25,2.37,2.25,2.37l3.91-0.96l0.31-0.08
				c1.49-0.38,3.06-0.38,4.55,0l0.24,0.07l0.29,0.08l2.94,0.85c0,0,0.7-0.11,2.6-2.37c1.9-2.26,2.79-9.57,2.79-9.57L94.13,78.5z"/>
			<path id="Path_170" class="st4" d="M95.45,71.51c0,0.14-0.73,5.12-1,5.9c-0.43,1.21-0.75,2.08-0.75,2.08l-0.53-1.11
				c-0.95-2.06-1.46-4.3-1.5-6.57l-0.1-4.26l1.4-1.26C95.79,66.71,96.09,68.32,95.45,71.51z"/>
			<path id="Path_171" class="st4" d="M73.28,67.75L73.28,67.75l-0.67,4.38c-0.32,2.04-1.02,4-2.05,5.78v0.1l-0.77,1.4
				c0,0-0.24-0.77-0.54-1.87c-0.24-0.82-0.82-4.98-0.96-5.58c-0.02-0.18-0.06-0.36-0.11-0.53c-0.6-3.13,0-4.44,2.79-4.84
				L73.28,67.75z"/>
			<path id="Path_172" class="st4" d="M93,66.29l-1.4,1.26l-2.69,0.96c-3.01-1.29-6.27-1.87-9.53-1.7
				c-5.42,0.42-6.15,1.97-6.24,2.07l0,0l-0.56-0.13l-2.67-0.59l-0.54-0.11c0.26-1.04,0.62-2.04,1.06-3.01
				c2.14-3.21,7.94-5.29,13.2-4.76h0.53c2.64,0.24,5.13,1.29,7.14,3.01L93,66.29z"/>
			<path id="Path_173" class="st5" d="M106.18,339.61v10.55H85.91c0,0,0.75-3.82,10.37-5.58l1.39-4.97H106.18z"/>
			<path id="Path_174" class="st5" d="M75.34,339.61v10.55H55.06c0,0,0.75-3.82,10.37-5.58l1.39-4.97H75.34z"/>
			<path id="Path_175" class="st5" d="M102.78,182.59c0,0,2.79,33.98,2.93,61.7s1.74,97.79,1.74,97.79H96.29
				c0,0-11.53-67.3-15.73-85.13c-4.2-17.83-15.1-74.04-15.1-74.04L102.78,182.59z"/>
			<path id="Path_176" class="st5" d="M78.45,219.09c0,0-2.11,42.23-2.53,50.55c-0.42,8.32,0,72.4,0,72.4s-10.48,0.28-10.48,0
				s-9.89-68.24-11.16-88.74c-1.27-20.5-0.53-44.77-2.23-47.6s4.59-22.97,4.59-22.97l14.83,3.96L78.45,219.09z"/>
			<path id="Path_177" class="st6" d="M73.86,100.58c0,0-4.65,10.55,2.36,11.71c11.16,1.86,14.51-12.38,14.51-12.38l12.27,6.32
				c0,0-0.22,76.37,4.59,99.67c2.79,13.54-43.78,7.09-50.62-4.93c-5.92-10.4,11.16-96.81,11.16-96.81L73.86,100.58z"/>
			<path id="Path_178" class="st1" d="M93.61,101.23c-0.33,0.46-16.75,48.62-11.16,93.95c1.31,10.56,20.58,1.81,25.12,1.81
				c0,0,2.19-33.81,2.72-46.4c0.53-12.59-5.46-16.75-4.93-22.88s7.26-17.12,7.26-17.12L93.61,101.23z"/>
			<path id="Path_179" class="st7" d="M66.1,200.05c1.88-31.51,2.65-97.46,2.65-97.46l-11.16-0.84c0,0-5.58,55.32-5.65,61.61
				c0,2.5,0.75,32.88-0.94,38.56C54.81,202.42,65.89,203.78,66.1,200.05z"/>
			<path id="Path_180" class="st8" d="M187.19,84.07c-8.74,3-17.7,6.13-24.63,12.22s-11.4,15.94-8.47,24.7s15.07,13.84,22.05,7.89
				c2.53-2.15,4.09-5.83,2.79-8.85c-2.68-5.99-12.03-3.18-16.41,1.69c-5.19,5.79-8.5,13.69-7.21,21.37s7.98,14.56,15.76,14.54
				s18.85-11.74,12.2-15.76c-8.37-5.09-19.31,7.06-23.46,16.01s-1.56,21.09,6.98,26.11s28.43-1.33,23.21-9.7
				c-5.51-8.86-21.81,3.91-23.99,14.11c-2.18,10.2,5.82,21.39,16.19,22.65s28.3-10.54,21.13-18.14
				c-10.43-11-27.69,16.91-22.71,31.18c4.98,14.26,25.59,19.9,37.15,10.21c2.16-1.81,4.19-4.41,3.73-7.2
				c-0.67-4.66-7.05-5.97-11.51-4.48c-11.64,3.89-16.9,20.18-9.77,30.14c7.13,9.96,24.34,10.09,31.76,0.32
				c1.6-1.82,2.34-4.24,2.02-6.64c-0.73-3.25-4.59-5.09-7.87-4.48c-3.27,0.85-6.08,2.95-7.8,5.86c-6.64,9.77-4.4,24.62,4.86,32.1
				c9.26,7.48,24.17,6.41,32.33-2.22c2.13-2.25,3.89-5.25,3.32-8.29c-0.64-3.52-4.4-5.88-7.97-5.79c-3.61,0.3-6.96,1.99-9.35,4.72
				c-10.41,10.82-5.96,31.76,7.97,37.41c13.93,5.65,41.55-9.91,31.76-21.31c-6.53-7.62-19.41,8.86-17.76,18.76
				s13.03,16.65,22.75,14.1c9.71-2.55,22.48-16.47,14.99-23.14c-5.3-4.72-13.96,5.26-15.53,12.17c-1.52,7.15,1.9,14.45,8.37,17.85
				c6.85,3.38,15.25,1.4,21.85-2.53s12.07-9.38,18.42-13.62c12.96-8.58,28.84-11.56,44.03-8.25"/>
			<path id="Path_181" class="st9" d="M357.29,350.98h-26.32c-2.91,0.01-5.34-2.22-5.58-5.12l-1.72-20.78h40.88l-1.73,20.78
				C362.57,348.74,360.18,350.96,357.29,350.98z"/>
			<path id="Path_182" class="st9" d="M512.68,350.98h-26.32c-2.91,0.01-5.34-2.22-5.58-5.12l-1.72-20.78h40.89l-1.72,20.78
				C517.99,348.75,515.58,350.97,512.68,350.98L512.68,350.98z"/>
			<path id="Path_183" class="st10" d="M517.24,297.81H326.4l13.49-98.37c1.05-7.68,7.6-13.4,15.35-13.4h133.14
				c7.74,0.01,14.29,5.73,15.35,13.4L517.24,297.81z"/>
			<path id="Path_184" class="st10" d="M491.54,278.73H352.15l9.91-98.83c0.72-7.35,6.91-12.95,14.29-12.95h90.93
				c7.38,0.01,13.56,5.6,14.3,12.95L491.54,278.73z"/>
			<path id="Path_185" class="st11" d="M329.47,275.48l-3.07,22.33h190.84l-3.07-22.33H329.47z"/>
			<path id="Path_186" class="st10" d="M537.9,335.98H305.75l4.3-50.43H533.6L537.9,335.98z"/>
			<circle id="Ellipse_13" class="st11" cx="421.81" cy="228.42" r="42.47"/>
			<circle id="Ellipse_14" class="st6" cx="421.82" cy="228.44" r="36.73"/>
			<path id="Path_187" class="st12" d="M432.09,258.66c-1.27,0-2.48-0.51-3.38-1.4c-0.43-0.45-0.78-0.98-1.03-1.55
				c-0.11-0.29-0.21-0.59-0.28-0.89c-0.06-0.31-0.09-0.62-0.1-0.93c0-1.26,0.51-2.47,1.4-3.36c1.13-1.12,2.74-1.61,4.3-1.31
				c0.31,0.07,0.6,0.16,0.89,0.28c0.29,0.11,0.57,0.26,0.82,0.43c0.26,0.18,0.5,0.38,0.73,0.6c0.89,0.89,1.39,2.1,1.4,3.36
				c0,0.31-0.03,0.63-0.08,0.93c-0.07,0.3-0.17,0.6-0.28,0.89c-0.12,0.28-0.27,0.55-0.43,0.81c-0.17,0.27-0.37,0.52-0.6,0.74
				c-0.22,0.22-0.47,0.41-0.73,0.59c-0.25,0.18-0.53,0.33-0.82,0.43C433.33,258.52,432.71,258.65,432.09,258.66L432.09,258.66z"/>
			<path id="Path_188" class="st12" d="M417.31,260.34L417.31,260.34c-2.61-0.37-4.42-2.79-4.05-5.4l0,0
				c0.37-2.6,2.78-4.41,5.39-4.05l0,0c2.61,0.37,4.42,2.79,4.05,5.4l0,0c-0.33,2.35-2.34,4.1-4.72,4.1l0,0
				C417.75,260.39,417.53,260.37,417.31,260.34L417.31,260.34z M401.96,253.82L401.96,253.82c-2.08-1.62-2.45-4.62-0.82-6.7
				c0,0,0,0,0,0l0,0c1.62-2.07,4.61-2.44,6.68-0.82l0,0c2.08,1.62,2.45,4.62,0.82,6.7c0,0,0,0,0,0l0,0
				c-0.9,1.16-2.29,1.83-3.75,1.83l0,0c-1.05,0-2.07-0.35-2.9-1L401.96,253.82z M391.96,240.52c-0.99-2.44,0.19-5.21,2.63-6.2
				c0,0,0.01,0,0.01,0l0,0c2.44-0.99,5.22,0.2,6.21,2.64l0,0c0.98,2.45-0.21,5.22-2.65,6.21l0,0c-0.57,0.22-1.17,0.33-1.77,0.34l0,0
				C394.44,243.51,392.69,242.33,391.96,240.52z M393.99,229.36c-2.61-0.37-4.43-2.78-4.06-5.39l0,0c0.37-2.6,2.77-4.42,5.38-4.05
				c0,0,0.01,0,0.01,0l0,0c2.6,0.36,4.42,2.76,4.06,5.37c0,0,0,0,0,0.01l0,0c-0.33,2.35-2.34,4.1-4.72,4.1l0,0
				C394.43,229.4,394.21,229.38,393.99,229.36L393.99,229.36z M397.27,215.4c-2.07-1.62-2.45-4.62-0.84-6.7l0,0
				c1.62-2.08,4.62-2.45,6.7-0.82c0,0,0,0,0,0l0,0c2.07,1.62,2.44,4.61,0.83,6.68c0,0,0,0,0,0.01l0,0c-0.9,1.16-2.28,1.84-3.75,1.84
				l0,0C399.14,216.4,398.11,216.05,397.27,215.4L397.27,215.4z M435.76,210.66c-2.07-1.62-2.44-4.61-0.83-6.68c0,0,0,0,0-0.01l0,0
				c1.61-2.08,4.59-2.46,6.68-0.86c0,0,0.01,0.01,0.01,0.01l0,0c2.08,1.62,2.46,4.62,0.84,6.7c0,0,0,0,0,0l0,0
				c-0.91,1.16-2.3,1.84-3.77,1.84l0,0c-1.08-0.01-2.13-0.39-2.97-1.07L435.76,210.66z M407.12,204.88c-1-2.42,0.15-5.18,2.57-6.18
				c0.02-0.01,0.04-0.01,0.05-0.02l0,0c2.44-0.99,5.22,0.19,6.21,2.62l0,0c0.95,2.4-0.19,5.13-2.57,6.14l0,0
				c-0.57,0.23-1.17,0.35-1.79,0.35l0,0c-1.97,0.03-3.75-1.16-4.48-2.99L407.12,204.88z M424.94,206.08
				c-2.61-0.37-4.42-2.79-4.05-5.4l0,0c0.37-2.6,2.79-4.41,5.39-4.03l0,0c2.6,0.36,4.42,2.76,4.06,5.37c0,0,0,0,0,0.01l0,0
				c-0.34,2.35-2.35,4.09-4.72,4.1l0,0L424.94,206.08z"/>
			<path id="Path_189" class="st12" d="M447.26,222.96c-0.31,0-0.62-0.04-0.92-0.1c-0.31-0.05-0.62-0.14-0.91-0.26
				c-0.28-0.13-0.55-0.27-0.81-0.43c-0.26-0.18-0.51-0.38-0.74-0.6c-0.89-0.9-1.39-2.1-1.4-3.36c0-0.32,0.03-0.64,0.08-0.95
				c0.06-0.3,0.15-0.6,0.28-0.88c0.12-0.29,0.26-0.57,0.43-0.84c0.18-0.25,0.37-0.49,0.59-0.71c0.22-0.23,0.47-0.42,0.74-0.59
				c0.25-0.18,0.52-0.34,0.81-0.46c0.3-0.11,0.6-0.19,0.91-0.25c1.56-0.31,3.16,0.18,4.28,1.3c0.23,0.21,0.43,0.45,0.6,0.71
				c0.33,0.53,0.57,1.11,0.71,1.72c0.07,0.31,0.1,0.63,0.1,0.95c-0.02,2.63-2.15,4.75-4.77,4.76L447.26,222.96z"/>
			<path id="Path_190" class="st1" d="M367.06,73.75c-2.85-7.3-1.26-15.58,4.09-21.31c0,0,34.54,22.33,73.14,16.06
				c0,0,4.19,11.65-7.63,22.43C436.65,90.93,395.33,98.77,367.06,73.75z"/>
			<path id="Path_191" class="st1" d="M426.18,24.21C401.33,3.27,354.24,0.3,294.65,9.91c-51.24,8.25-103.42,27.6-120.84,54.94
				c-7.94,12.45-2.55,47.03-2.55,47.03c47.21,2.94,64.5-37.68,64.5-37.68s-3.17-11.47,7.37-16.5
				c37.05-17.86,94.43-23.94,115.83-18.68c6.51,1.44,11.41,6.81,12.25,13.42c0,0,29.08,33.17,72.99,15.49
				C444.2,67.93,437.46,33.73,426.18,24.21z"/>
			<path id="Path_192" class="st1" d="M245.4,92.79c0.41-7.82-3.71-15.19-10.58-18.94c0,0-25.76,32.08-64.4,38.28
				c0,0-0.36,12.38,14.29,18.9C184.71,130.96,226.38,125.43,245.4,92.79z"/>
			<g>
				<defs>
					<path id="SVGID_1_" d="M43.52,201.19h198.06c7.85,0,14.22,6.37,14.22,14.22v121.11c0,7.85-6.37,14.22-14.22,14.22H43.52
						c-7.85,0-14.22-6.37-14.22-14.22V215.41C29.3,207.56,35.67,201.19,43.52,201.19z"/>
				</defs>
				<clipPath id="SVGID_2_">
					<use xlink:href="#SVGID_1_"  style="overflow:visible;"/>
				</clipPath>
				<g id="Group_43" transform="translate(10.854 196.519)" class="st13">
					<path id="Rectangle_100" class="st14" d="M32.67,4.68h198.06c7.85,0,14.22,6.37,14.22,14.22V140c0,7.85-6.37,14.22-14.22,14.22
						H32.67c-7.85,0-14.22-6.37-14.22-14.22V18.9C18.45,11.04,24.82,4.68,32.67,4.68z"/>
					<path id="Path_193" class="st14" d="M244.95,24.46c0-10.96-8.88-19.85-19.85-19.85l0,0H38.29c-10.96,0-19.84,8.88-19.84,19.85
						l0,0l102.7,83.31c6.07,4.92,14.76,4.92,20.84,0L244.95,24.46z"/>
					<path id="Path_194" class="st15" d="M31.67,138.79V28.93c0.02-10.95,8.89-19.81,19.84-19.82h185.93
						c-3.49-2.84-7.84-4.39-12.34-4.41H38.29c-10.93,0-19.8,8.83-19.84,19.76v109.86c-0.05,10.96,8.8,19.88,19.76,19.93
						c0.03,0,0.06,0,0.08,0h0.88C34.44,150.51,31.68,144.82,31.67,138.79z"/>
					<path id="Path_195" class="st14" d="M119.24,93.31L18.45,4.68h226.5L144.22,93.31C137.07,99.57,126.38,99.57,119.24,93.31z"/>
					<path id="Path_196" class="st15" d="M119.24,93.31L18.45,4.68h226.5L144.22,93.31C137.07,99.57,126.38,99.57,119.24,93.31z"/>
				</g>
			</g>
			<path id="Path_197" class="st2" d="M323.58,110.73c0,0,6.45-18.6,6.89-20.65c2.66-12.08,3.39-38.29,3.22-43.86
				c-0.17-5.57-0.68-10.47-0.8-11.16c-0.12-0.7-3.56-4.47-3.57-4.41c-0.36,0.06-0.71,0.09-1.07,0.11v0.7l-1.49-1.29h-1.24
				l-0.14,0.57l-1.81-0.95h-1.72c0,0,1.1,3.55,1.73,5.69c0.63,2.15,0,2.33,0,2.33c-0.61,0.25-1.26,0.37-1.91,0.35
				c-0.8-0.11-1.62-0.14-2.43-0.1c0,0,5.21,6.77,5.44,7.4c2.05,2.81,2.81,6.36,2.09,9.77c-1.97,9.16-4.44,18.2-7.41,27.09
				c0.15-0.39-6.98,20.07-6.98,20.07L323.58,110.73z"/>
			<path id="Path_198" class="st16" d="M320.11,135.35c2-15.66,10.02-33.94,10.02-33.94s-12.25-2.43-15.35-6.78
				c0,0-4.19,10.3-6.66,15.42c-2.68,5.68-6.45,11.85-1.72,15.22S319.42,140.8,320.11,135.35z"/>
			<path id="Path_199" class="st5" d="M273.19,340.85v10.06h19.34c0,0-0.73-3.64-9.91-5.33l-1.4-4.73H273.19z"/>
			<path id="Path_200" class="st5" d="M302.61,340.85v10.06h19.34c0,0-0.73-3.64-9.89-5.33l-1.4-4.73H302.61z"/>
			<path id="Path_201" class="st5" d="M276.44,191.01c0,0-2.71,28.13-2.79,54.57c-0.08,26.43-1.68,97.58-1.68,97.58h10.68
				c0,0,11.01-68.49,15.02-85.49s14.4-66.33,14.4-66.33L276.44,191.01z"/>
			<path id="Path_202" class="st2" d="M292.85,97.73c0,0-0.7,5.39-1.26,8.12c-0.27,1.72-0.74,3.4-1.4,5.01
				c-1.02,1.86-6.6,7.51-6.6,7.51s17.71,9.35,22.9,9.35s3.39-10.44,3.39-10.44s-5.68-4.49-6.53-6.75c-0.69-2.9-1.13-5.86-1.31-8.83
				L292.85,97.73z"/>
			<path id="Path_203" class="st5" d="M299.65,221.53c0,0,2.01,44.66,2.4,52.51c0.39,7.86,0,69.07,0,69.07s10.01,0.28,10.01,0
				s9.43-69.4,10.66-88.94s0.5-42.72,2.12-45.43s-4.38-17.61-4.38-17.61l-14.15-0.52L299.65,221.53z"/>
			<path id="Path_204" class="st1" d="M287.13,113.11c0,0-14.93-6-17.42-1.07c-1.86,3.73-0.25,27.63,0.57,34.32
				c0.73,5.82,4.74,54.72,4.74,54.72s5.58,8.65,32.47,5.21c10.37-1.4,15.46-6.38,15.46-6.38s-2.9-58.36-3.71-64.2
				c-0.88-5.07-2.07-10.08-3.56-15l-8.01-5.28c0,0,2.55,5.58-4.66,7.24C288.47,125.9,287.13,113.11,287.13,113.11z"/>
			<path id="Path_205" class="st2" d="M307,77.38c1.69,0.68,4.65,2.2,4.98,3.63c0.76,2.62,1.32,5.3,1.69,8
				c0.15,2.48,0.52,7.17,0.52,10.1s-1.77,8.85-2.44,9.48c-2.28,1-4.78,1.41-7.26,1.17c-1.66-0.47-11.42-5.58-12.03-11.69
				c0,0-1.72,0.91-4.9-4.19c-0.84-1.4,2.02-11.33,2.41-13.12c0.93-4.33,11.6-0.92,13.96-1.6C305.13,78.95,306.22,78.32,307,77.38
				L307,77.38z"/>
			<path id="Path_206" class="st5" d="M311.99,81.01c0,0-7.48,4.68-10.38,4.91c-2.9,0.24-7.2,4.26-7.13,5.5
				c-0.05,0.85-0.51,1.63-1.23,2.09c0,0-1.81-2.89-3.29-2.6c-2.95,0.6-1.21,4.19,0.38,5.04c1.02,0.5,2.07,0.93,3.15,1.28
				c0.15,1.03,0.2,2.07,0.14,3.11c-0.25,1.27-0.66,2.5-1.24,3.66c0,0-3.45-7.22-6.55-10.02c-7.35-6.45-2.04-18.42,5.22-20.67
				c2.92-0.91,10.96-1.51,14.86,0.24C309.01,74.94,311.26,77.7,311.99,81.01z"/>
			<path id="Path_207" class="st9" d="M296.33,91.2c0.11,0.29,0.88,0.35,1.02,0.4c0.14,0.05,0.17,0.18,1.52,2.25
				c0.99,1.52,2.65,2.01,5.76,0.96c2.37-0.8,2.04-2.79,2.21-3.8c0.17-1.01,0.38-1.14,0.75-1.21c0.38-0.07,0.59,0,1.07,0.89
				c0.49,0.89,0.71,3.06,3.2,2.69c1.72-0.26,2.16-0.74,2.39-2.08c0.2-1.08,0.26-2.18,0.2-3.28c0-0.89-0.08-1.4-0.53-1.49
				c-0.69-0.01-1.37,0.07-2.04,0.22c-1.16,0.05-2.3,0.35-3.35,0.86c-0.8,0.59-0.71,0.95-1.13,1.02s-0.52-0.28-1.46-0.56
				c-2.14-0.01-4.28,0.22-6.38,0.68c-1.48,0.25-3.5,0.81-3.46,1.4C296.13,90.51,296.21,90.86,296.33,91.2L296.33,91.2z M309.11,89
				c0.08-0.73,0.14-0.64,1.97-1.06c1.83-0.42,2.02-0.33,2.39,0c0.54,0.88,0.7,1.94,0.45,2.94c0.06,1.06-0.71,1.98-1.76,2.12
				c-1.6,0.28-1.98-0.52-2.44-1.63c-0.34-0.74-0.54-1.52-0.6-2.33L309.11,89z M298.46,90.18c0.24-0.39,2.72-0.73,4.58-0.96
				c1.86-0.24,2.48-0.31,2.79,0.35c0.21,0.78,0.29,1.59,0.24,2.4c0,1.2-0.29,2.26-3.2,2.79c-1.55,0.57-3.28-0.18-3.92-1.7
				c-0.58-0.82-0.76-1.86-0.49-2.83L298.46,90.18z M292.24,92.03l4.09-0.84l1.4-2.02c0,0-1.56,0.24-4.19,0.81
				c-0.88,0.24-1.72,0.63-2.47,1.16c0.44,0.24,0.84,0.55,1.17,0.94L292.24,92.03z"/>
			<path id="Path_208" class="st2" d="M260.02,112.44c0,0-3.53-22.33-3.57-24.51c-0.2-12.38,6.08-29,7.35-34.43s2.14-4.58,2.39-5.29
				s9.25-2.08,9.25-2.08c0.97-0.42,1.96-0.78,2.97-1.08c1-0.18,1.98-0.44,2.95-0.77l-1.4,2.48c0,0-5.58,4.27-5.97,4.83
				c-2.58,2.36-4.03,5.69-4.01,9.18c-0.22,11.08-0.2,23.07-0.2,23.07c-0.08-0.4,5.3,22.94,5.3,22.94L260.02,112.44z"/>
			<path id="Path_209" class="st16" d="M270.29,146.35c-3.8-10.8-12.56-39.79-12.56-39.79s12.94-3.26,16.59-7.22
				c0,0,4.37,12.96,6.17,18.34c2.01,5.94,5.04,12.56,0,15.35S272.11,151.53,270.29,146.35z"/>
			
				<linearGradient id="Path_210_1_" gradientUnits="userSpaceOnUse" x1="36.1607" y1="430.1241" x2="37.1627" y2="430.1241" gradientTransform="matrix(64.8134 0 0 -94.145 -1884.2874 40700.4688)">
				<stop  offset="0" style="stop-color:#343A44"/>
				<stop  offset="0.3" style="stop-color:#232D3E"/>
				<stop  offset="0.64" style="stop-color:#182439"/>
				<stop  offset="1" style="stop-color:#142138"/>
			</linearGradient>
			<path id="Path_210" class="st17" d="M520.5,164.44c3.36,3.13,5.74,2.08,10.79,19.36c3.22,11.02,14.97,66.67,14.97,66.67
				l-6.98,3.04c-9.5-26.6-9.49-26.51-20.58-48.15c-3.34-6.61-5.89-13.59-7.62-20.79l-20.52-1.23c-12.81-5.26-8.37-23.98-8.37-23.98
				S517.15,161.31,520.5,164.44z"/>
			
				<linearGradient id="Path_211_1_" gradientUnits="userSpaceOnUse" x1="36.7534" y1="430.6822" x2="37.7534" y2="430.6822" gradientTransform="matrix(91.8126 0 0 -123.049 -2899.1228 53192.5898)">
				<stop  offset="0" style="stop-color:#343A44"/>
				<stop  offset="0.3" style="stop-color:#232D3E"/>
				<stop  offset="0.64" style="stop-color:#182439"/>
				<stop  offset="1" style="stop-color:#142138"/>
			</linearGradient>
			<path id="Path_211" class="st18" d="M442.82,147.9l18.51-11.85l17.89,13.96l22.33,7.2h-0.13c8.97,3.11,19.22,7.65,22.33,10.58
				c3.36,3.13,9.98,7.56,4.63,24.74c-3.41,10.97-18.28,66.57-18.28,66.57l-7.54-1.4c0,0,2.68-32.22,5.36-56.31
				c1.31-11.7,1.74-14.95,1.74-14.95s-49.78,5.43-65.81-3.04C432.63,177.54,442.82,156.89,442.82,147.9z"/>
			<path id="Path_212" class="st5" d="M510.63,255.08c0,0-0.22,2.02-3.46,2.95c-2,0.46-4.09-0.23-5.44-1.77l-0.73,6.62l10.36,7.3
				h8.6l-4.65-5.16L510.63,255.08z"/>
			<path id="Path_213" class="st5" d="M545.14,245.92c0.88,1.66,0.32,3.71-1.28,4.69c-1.76,1.07-3.96,1.07-5.72,0l1.33,6.52
				l24.45-7.65L545.14,245.92z"/>
			<path id="Path_214" class="st2" d="M516.99,81.22c-1.46-1.53-2.82-3.15-4.08-4.84l-0.93-4.26c0,0-1.65-2.2-2.92-3.53
				c-1.27-1.33-2.4-6.98-2.4-6.98l1.62-1.12c0.35,1.07,0.79,2.11,1.31,3.11c0.45,0.38,1.01,0.61,1.6,0.66
				c0.09-1.32,0.09-2.64,0-3.96c-0.28-2.27-0.78-4.51-1.51-6.69l1.4-0.68c0.5,1,0.94,2.02,1.33,3.07c0.29,0.98,0.8,2.97,0.8,2.97
				c-0.04-1.52-0.18-3.04-0.42-4.54c-0.32-1.31-0.56-3.01-0.56-3.01l1.4-0.36c0.4,1.2,0.72,2.42,0.96,3.66
				c0.24,1.49,0.75,4.03,0.75,4.03c0.08-1.54,0.08-3.08,0-4.62c-0.08-0.54-0.12-1.08-0.14-1.62h1.54c0.35,1.13,0.53,2.3,0.54,3.47
				c-0.03,0.93,0.02,1.87,0.15,2.79c0.28-1.24,0.42-2.5,0.42-3.77c-0.08-0.42-0.08-0.86,0-1.28l1.19,0.21c0,0,0.67,4.69,0.89,7.54
				c0.22,2.85-0.14,6.43-0.17,8.37c-0.03,1.94-0.07,3.57-0.07,3.57L516.99,81.22z"/>
			<path id="Path_215" class="st2" d="M485.65,86.72c6.06,4.94,12.44,9.5,19.08,13.63c0,0,3.56-8.9,5.25-15.21
				c2.02-7.54,2.61-11.01,2.61-11.01l7.2-0.59c0,0-2.29,19.27-5.12,32.33c-2.79,12.7-6.21,10.43-9.25,9.77s-31.69-16.02-31.69-16.02
				l3.07-16.36C476.79,83.27,478.82,81.12,485.65,86.72z"/>
			<path id="Path_216" class="st19" d="M455.36,40.45c1.54-0.86,8.93-1.48,13.57,1.4c8.86,5.46,4.62,20.42,4.06,23.86
				c-0.56,3.45,2.62,9.64,2.57,13.75s-1.03,5.58-4.1,9.59c-0.61,0.96-1,2.05-1.14,3.18c-2.28-3.69-3.71-7.84-4.19-12.15
				c-0.73-7.07-2.23-5.42-5.78-13.19s-3.68-19.54-3.68-19.54L455.36,40.45z"/>
			<path id="Path_217" class="st19" d="M462.75,45.52l-7.39-5.07c-3.91-0.33-7.7,1.49-9.88,4.76c-3.64,5.58-4.93,13.72-5.75,19.8
				s-2.96,17.56-2.79,22.09s5.67,5.16,5.67,5.16l18.42-8.05c-1.3-6.62-1.37-13.42-0.2-20.07C462.04,58.01,462.68,51.77,462.75,45.52
				L462.75,45.52z"/>
			<path id="Path_218" class="st2" d="M468.9,47.07c0.39,2.32,2.18,9.09,2.36,13.43s-0.35,11.48-3.22,13.47
				c-2.88,1.98-8.28,0.39-12.23-1.24c-3.95-1.63-4.9-4.41-5.68-6.98s-0.49-9.32,0.4-14.17c0.51-3.91,3.6-6.97,7.51-7.45
				C461.66,43.46,468.9,47.07,468.9,47.07z"/>
			<path id="Path_219" class="st2" d="M452.75,63.29c0,0,1.02,10.79-1.26,15.87c-1.56,3.5-7.91,5-7.91,5
				c0.18,6.79,2.29,13.39,6.08,19.02c6.38,9.36,26.28,12.82,26.28,12.82c2.54-5.31,4.53-10.86,5.95-16.58
				c1.11-5.44-0.16-11.1-3.5-15.55c0,0-5.39-1.76-7.97-2.79c-6.28-2.36-5.58-12.32-5.58-12.32L452.75,63.29z"/>
			<path id="Path_220" class="st1" d="M464.85,88.24c0,0-12.86-3.27-16.75-5.78l-12.77,7.59c0,0-7.49,7.15,5.3,25.96
				c0,0,4.86,17.12-3.03,47.31c0,0,2.12,7.77,14.08,3.63c10.3-3.56,10.52-6.35,19.54-8.62c13.31-3.38,16.82-5.46,16.82-5.46
				c-6.98-10.51-5.75-26.92-5.75-26.92s7.93-7.58,4.54-15.35c-4.91-11.16-6.56-27.03-6.56-27.03l-6.82-1.73
				c-1.67,2.08-3.49,4.02-5.46,5.81C467.16,88.45,465.93,88.68,464.85,88.24z"/>
			<path id="Path_221" class="st6" d="M470.46,81.14c0,0-1.56,5.83-5.58,7.1c0,0,1.58,8,5.36,6.6c5.32-1.94,3.25-12.99,3.25-12.99
				L470.46,81.14z"/>
			<path id="Path_222" class="st6" d="M446.57,81.43c0,0,2.53,12.2,9.27,13.19s9.02-6.43,9.02-6.43s-14.29-4.19-15.69-8.57
				L446.57,81.43z"/>
			<path id="Path_223" class="st19" d="M458.46,44.01c-1.24,0.08-2.16,5.96-2.29,9.24s-5.04,5.88-2.88,13.09
				c2.16,7.22,1.95,14.19,4.74,22.06s-0.71,10.8-2.29,13.52c-3.01-3.23-5.8-6.64-8.37-10.23c-1.78-3.13-5.38-4.74-8.9-3.98
				c0,0,9.5-18.45,9.18-23.42s-1.2-12.56,2.79-17.11S458.46,44.01,458.46,44.01z"/>
			<path id="Path_224" class="st2" d="M453.47,58.74c0,0-2.65-2.89-4.4-2.44s-1.84,3.06-0.52,5.19s6.24,3.35,6.24,3.35L453.47,58.74
				z"/>
			<path id="Path_225" class="st19" d="M459.44,53.12c2.51,0.09,5.02-0.09,7.49-0.54c4.79-0.53,6.81,0.7,6.81,0.7l-1.81-7.96
				c0,0-5.58-3.11-9.55-3.08c-5.04,0-9.45,1.97-6.98,3.6S459.44,53.12,459.44,53.12z"/>
			<path id="Path_226" class="st2" d="M446.18,98.97c-0.85,9.98-3.78,38.45-3.78,38.45c9.08,7.96,21.95,21.17,21.95,21.17
				s-3.67,7.21-5.23,6c-12.56-9.77-26.84-15.59-27.91-22.33c-1.67-11.16-2.26-39.36,1.87-48.52C436.3,86.6,447.09,88.4,446.18,98.97
				z"/>
			<path id="Path_227" class="st2" d="M469.86,159.47c3.81,1.4,6.2,2.79,5.97,4.19c-0.15,0.98-3.4-0.81-5.35-0.75
				c1.04,1.95,2.65,3.53,4.62,4.54c2.51,1.24,3.92,2.96,2.58,4.41c-1.34,1.45-3.82,3.5-5.46,2.79s-7.36-4.76-9.52-5.86
				c-2.16-1.1-3.03-3.84-4.19-4.58c-1.16-0.74,2.04-6.48,2.04-6.48c0.6,0.17,3.74,0.84,3.74,0.84c1.03,0.17,2.07,0.25,3.11,0.26
				C468.27,158.9,469.09,159.12,469.86,159.47L469.86,159.47z"/>
		</g>
	</g>
</g>
</svg>
